<svg xmlns="http://www.w3.org/2000/svg" viewBox="0 0 100 100" width="100" height="100">
  <!-- GitHub-style background -->
  <path fill="#f1bc19" d="M77 12A1 1 0 1 0 77 14A1 1 0 1 0 77 12Z"/>
  <path fill="#e4e4f9" d="M50 13A37 37 0 1 0 50 87A37 37 0 1 0 50 13Z"/>
  <path fill="#f1bc19" d="M83 11A4 4 0 1 0 83 19A4 4 0 1 0 83 11Z"/>
  <path fill="#8889b9" d="M87 22A2 2 0 1 0 87 26A2 2 0 1 0 87 22Z"/>
  <path fill="#fbcd59" d="M81 74A2 2 0 1 0 81 78 2 2 0 1 0 81 74zM15 59A4 4 0 1 0 15 67 4 4 0 1 0 15 59z"/>
  <path fill="#8889b9" d="M25 85A2 2 0 1 0 25 89A2 2 0 1 0 25 85Z"/>
  <path fill="#fff" d="M18.5 49A2.5 2.5 0 1 0 18.5 54 2.5 2.5 0 1 0 18.5 49zM79.5 32A1.5 1.5 0 1 0 79.5 35 1.5 1.5 0 1 0 79.5 32z"/>

  <!-- Center X logo adapted to 100x100 canvas -->
  <g transform="translate(25, 25) scale(1.05)">
    <rect width="48" height="48" fill="#212121" rx="4" ry="4"/>
    <path fill="#fff" d="M34.257,34h-6.437L13.829,14h6.437L34.257,34z M28.587,32.304h2.563L19.499,15.696h-2.563L28.587,32.304z"/>
    <polygon fill="#fff" points="15.866,34 23.069,25.656 22.127,24.407 13.823,34"/>
    <polygon fill="#fff" points="24.45,21.721 25.355,23.01 33.136,14 31.136,14"/>
  </g>
</svg>
